<svg aria-hidden="true" style="position: absolute; width: 0; height: 0; overflow: hidden;"
	version="1.1" xmlns="http://www.w3.org/2000/svg" xmlns:xlink="http://www.w3.org/1999/xlink">
	<defs>

		<symbol id="icon-bash" version="1.1" xmlns="http://www.w3.org/2000/svg"
			viewBox="0 40 120 120">
			<title>bash</title>
			<path
				d="M105.9,66.3L68.7,44.2c-2.2-1.3-4.7-2-7.2-2s-5,0.7-7.2,2L17.1,66.3c-4.4,2.6-7.2,7.5-7.2,12.8v44.2
		c0,5.3,2.7,10.1,7.2,12.8l37.2,22.1c2.2,1.3,4.7,2,7.2,2c2.5,0,5-0.7,7.2-2l37.2-22.1c4.4-2.6,7.2-7.5,7.2-12.8V79
		C113.1,73.8,110.4,68.9,105.9,66.3z M77.1,135.3l0.1,3.2c0,0.4-0.2,0.8-0.5,1l-1.9,1.1c-0.3,0.2-0.5,0-0.6-0.4l0-3.1
		c-1.6,0.7-3.2,0.8-4.3,0.4c-0.2-0.1-0.3-0.4-0.2-0.7l0.7-2.9c0.1-0.2,0.2-0.5,0.3-0.6c0.1-0.1,0.1-0.1,0.2-0.1
		c0.1-0.1,0.2-0.1,0.3,0c1.1,0.4,2.6,0.2,3.9-0.5c1.8-0.9,2.9-2.7,2.9-4.5c0-1.6-0.9-2.3-3-2.3c-2.7,0-5.2-0.5-5.3-4.5
		c0-3.3,1.7-6.7,4.4-8.8l0-3.2c0-0.4,0.2-0.8,0.5-1l1.8-1.2c0.3-0.2,0.5,0,0.6,0.4l0,3.2c1.3-0.5,2.5-0.7,3.6-0.4
		c0.2,0.1,0.3,0.4,0.2,0.7l-0.7,2.8c-0.1,0.2-0.2,0.4-0.3,0.6c-0.1,0.1-0.1,0.1-0.2,0.1c-0.1,0-0.2,0.1-0.3,0
		c-0.5-0.1-1.6-0.4-3.4,0.6c-1.9,1-2.6,2.6-2.5,3.8c0,1.5,0.8,1.9,3.3,1.9c3.4,0.1,4.9,1.6,5,5C81.7,129.4,79.9,133,77.1,135.3z
		 M96.6,129.9c0,0.3,0,0.6-0.3,0.7l-9.4,5.7c-0.2,0.1-0.4,0-0.4-0.3v-2.4c0-0.3,0.2-0.5,0.4-0.6l9.3-5.5c0.2-0.1,0.4,0,0.4,0.3
		V129.9z M103.1,75.6L67.9,97.3c-4.4,2.6-7.6,5.4-7.6,10.7v43.4c0,3.2,1.3,5.2,3.2,5.8c-0.6,0.1-1.3,0.2-2,0.2
		c-2.1,0-4.1-0.6-5.9-1.6l-37.2-22.1c-3.6-2.2-5.9-6.2-5.9-10.5V79c0-4.3,2.3-8.4,5.9-10.5l37.2-22.1c1.8-1.1,3.8-1.6,5.9-1.6
		s4.1,0.6,5.9,1.6l37.2,22.1c3.1,1.8,5.1,5,5.7,8.5C109.1,74.4,106.3,73.7,103.1,75.6z" />
		</symbol>

		<symbol id="icon-mongodb" viewBox="0 0 32 32" version="1.1"
			xmlns="http://www.w3.org/2000/svg">
			<title>mongodb</title>
			<path
				d="M15.821 23.185s0-10.361 0.344-10.36c0.266 0 0.612 13.365 0.612 13.365-0.476-0.056-0.956-2.199-0.956-3.005zM22.489 12.945c-0.919-4.016-2.932-7.469-5.708-10.134l-0.007-0.006c-0.338-0.516-0.647-1.108-0.895-1.732l-0.024-0.068c0.001 0.020 0.001 0.044 0.001 0.068 0 0.565-0.253 1.070-0.652 1.409l-0.003 0.002c-3.574 3.034-5.848 7.505-5.923 12.508l-0 0.013c-0.001 0.062-0.001 0.135-0.001 0.208 0 4.957 2.385 9.357 6.070 12.115l0.039 0.028 0.087 0.063q0.241 1.784 0.412 3.576h0.601c0.166-1.491 0.39-2.796 0.683-4.076l-0.046 0.239c0.396-0.275 0.742-0.56 1.065-0.869l-0.003 0.003c2.801-2.597 4.549-6.297 4.549-10.404 0-0.061-0-0.121-0.001-0.182l0 0.009c-0.003-0.981-0.092-1.94-0.261-2.871l0.015 0.099z"></path>
		</symbol>

		<symbol id="icon-mysql" xmlns="http://www.w3.org/2000/svg" role="img"
			viewBox="0 4.03 24 16.3">
			<title>MySQL icon</title>
			<path
				d="M16.405 5.676c-.115 0-.193.014-.274.033v.013h.014c.054.104.146.18.214.273.054.107.1.214.154.32l.014-.015c.094-.066.14-.172.14-.333-.04-.047-.046-.094-.08-.14-.04-.067-.126-.1-.18-.153zM5.77 18.87h-.927c-.03-1.562-.123-3.03-.27-4.41h-.008l-1.41 4.41H2.45l-1.4-4.41h-.01c-.103 1.323-.168 2.793-.195 4.41H0c.055-1.966.192-3.81.41-5.53h1.15l1.335 4.064h.008L4.25 13.34h1.095c.242 2.015.384 3.86.428 5.53zm4.017-4.08c-.378 2.045-.876 3.533-1.492 4.46-.482.716-1.01 1.073-1.583 1.073-.153 0-.34-.046-.566-.138v-.494c.11.017.24.026.386.026.268 0 .483-.075.647-.222.197-.18.295-.382.295-.605 0-.155-.077-.47-.23-.944L6.23 14.79h.91l.727 2.36c.164.536.233.91.205 1.123.4-1.064.678-2.227.835-3.483h.88zM22.112 18.87h-2.63v-5.53h.885v4.85h1.745zM18.792 19.005l-1.016-.5c.09-.076.177-.158.255-.25.433-.506.648-1.258.648-2.253 0-1.83-.718-2.746-2.155-2.746-.704 0-1.254.232-1.65.697-.43.508-.646 1.256-.646 2.245 0 .972.19 1.686.574 2.14.35.41.877.615 1.583.615.264 0 .506-.033.725-.098l1.325.772.36-.622zM15.5 17.763c-.225-.36-.337-.94-.337-1.736 0-1.393.424-2.09 1.27-2.09.443 0 .77.167.977.5.224.362.336.936.336 1.723 0 1.404-.424 2.108-1.27 2.108-.445 0-.77-.167-.978-.5zM13.842 17.338c0 .47-.172.856-.516 1.156s-.803.45-1.384.45c-.543 0-1.064-.172-1.573-.515l.237-.476c.438.22.833.328 1.19.328.332 0 .593-.073.783-.22.188-.147.3-.354.3-.615 0-.33-.23-.61-.648-.845-.388-.213-1.163-.657-1.163-.657-.422-.307-.632-.636-.632-1.177 0-.45.157-.81.47-1.085.315-.278.72-.415 1.22-.415.512 0 .98.136 1.4.41l-.213.476c-.36-.152-.715-.23-1.064-.23-.283 0-.502.068-.654.206-.153.136-.248.31-.248.524 0 .328.234.61.666.85.393.215 1.187.67 1.187.67.433.305.648.63.648 1.168zM23.224 11.486c-.535-.014-.95.04-1.297.188-.1.04-.26.04-.274.167.055.053.063.14.11.214.08.134.218.313.346.407.14.11.28.216.427.31.26.16.555.255.81.416.145.094.293.213.44.313.073.05.12.14.214.172v-.02c-.046-.06-.06-.147-.105-.214-.067-.067-.134-.127-.2-.193-.194-.26-.435-.487-.695-.675-.214-.146-.682-.35-.77-.595l-.013-.014c.146-.013.32-.066.46-.106.227-.06.435-.047.67-.106.106-.027.213-.06.32-.094v-.06c-.12-.12-.21-.283-.334-.395-.34-.295-.717-.582-1.104-.823-.21-.134-.476-.22-.697-.334-.08-.04-.214-.06-.26-.127-.12-.146-.19-.34-.275-.514-.192-.368-.38-.775-.547-1.163-.12-.262-.193-.523-.34-.763-.69-1.137-1.437-1.826-2.586-2.5-.247-.14-.543-.2-.856-.274-.167-.008-.334-.02-.5-.027-.11-.047-.216-.174-.31-.235-.38-.24-1.364-.76-1.644-.072-.18.434.267.862.422 1.082.115.153.26.328.34.5.047.116.06.235.107.356.106.294.207.622.347.897.073.14.153.287.247.413.054.073.146.107.167.227-.094.136-.1.334-.154.5-.24.757-.146 1.693.194 2.25.107.166.362.534.703.393.3-.12.234-.5.32-.835.02-.08.007-.133.048-.187v.015c.094.188.188.367.274.555.206.328.566.668.867.895.16.12.287.328.487.402v-.02h-.015c-.043-.058-.1-.086-.154-.133-.12-.12-.255-.267-.35-.4-.28-.377-.527-.79-.747-1.218-.11-.21-.202-.436-.29-.643-.04-.08-.04-.2-.107-.24-.1.146-.247.273-.32.453-.127.288-.14.642-.188 1.01-.027.007-.014 0-.027.014-.214-.052-.287-.274-.367-.46-.2-.475-.233-1.238-.06-1.785.047-.14.247-.582.167-.716-.042-.127-.174-.2-.247-.303-.087-.124-.18-.285-.24-.427-.16-.374-.24-.788-.414-1.162-.08-.173-.22-.354-.334-.513-.127-.18-.267-.307-.368-.52-.033-.073-.08-.194-.027-.274.014-.054.042-.075.094-.09.088-.072.335.022.422.062.247.1.455.194.662.334.094.066.195.193.315.226h.14c.214.047.455.014.655.073.355.114.675.28.962.46.876.556 1.596 1.345 2.085 2.286.08.154.115.295.188.455.14.33.313.663.455.982.14.315.275.636.476.897.1.14.502.213.682.286.133.06.34.115.46.188.23.14.454.3.67.454.11.076.443.243.463.378z" />
		</symbol>


		<symbol id="icon-sass" xmlns="http://www.w3.org/2000/svg"
			xmlns:xlink="http://www.w3.org/1999/xlink" version="1.1" viewBox="0 0 547.8 410.6">

			<path
				d="M471.4,236c-19.1,0.1-35.7,4.7-49.6,11.5c-5.1-10.1-10.2-19.1-11.1-25.7c-1-7.7-2.2-12.4-1-21.6
	c1.2-9.2,6.6-22.3,6.5-23.3s-1.2-5.7-12.2-5.8c-11-0.1-20.5,2.1-21.6,5c-1.1,2.9-3.2,9.5-4.6,16.3c-1.9,10-22,45.7-33.5,64.4
	c-3.7-7.3-6.9-13.7-7.6-18.8c-1-7.7-2.2-12.4-1-21.6c1.2-9.2,6.6-22.3,6.5-23.3c-0.1-1-1.2-5.7-12.2-5.8c-11-0.1-20.5,2.1-21.6,5
	c-1.1,2.9-2.3,9.7-4.6,16.3c-2.3,6.6-29,66.2-36,81.6c-3.6,7.9-6.7,14.2-8.9,18.5c0,0,0,0,0,0s-0.1,0.3-0.4,0.8
	c-1.9,3.7-3,5.7-3,5.7s0,0,0,0.1c-1.5,2.7-3.1,5.2-3.9,5.2c-0.6,0-1.7-7.2,0.2-17c4-20.7,13.5-52.9,13.4-54c0-0.6,1.8-6.2-6.2-9.1
	c-7.8-2.9-10.6,1.9-11.3,1.9c-0.7,0-1.2,1.7-1.2,1.7s8.7-36.2-16.6-36.2c-15.8,0-37.6,17.3-48.4,32.9c-6.8,3.7-21.3,11.6-36.8,20.1
	c-5.9,3.3-12,6.6-17.7,9.7c-0.4-0.4-0.8-0.9-1.2-1.3c-30.6-32.7-87.2-55.8-84.8-99.7c0.9-16,6.4-58,108.7-109
	C233.9,19,300.9,30.5,312.5,56c16.6,36.4-35.9,104-122.9,113.8c-33.2,3.7-50.6-9.1-55-13.9c-4.6-5-5.3-5.3-7-4.3c-2.8,1.5-1,6,0,8.6
	c2.6,6.8,13.3,18.8,31.4,24.7c16,5.2,54.9,8.1,102-10.1c52.7-20.4,93.9-77.1,81.8-124.6C330.7,2,250.7-13.9,175,13
	C130,29,81.2,54.2,46.1,87c-41.7,39-48.3,72.9-45.6,87.1c9.7,50.4,79.2,83.2,107,107.5c-1.4,0.8-2.7,1.5-3.8,2.1
	c-13.9,6.9-66.9,34.6-80.1,63.9c-15,33.2,2.4,57,13.9,60.2c35.7,9.9,72.4-7.9,92.1-37.3c19.7-29.4,17.3-67.6,8.2-85.1
	c-0.1-0.2-0.2-0.4-0.4-0.6c3.6-2.1,7.3-4.3,10.9-6.4c7.1-4.2,14.1-8.1,20.1-11.3c-3.4,9.3-5.9,20.4-7.1,36.4
	c-1.5,18.8,6.2,43.2,16.3,52.8c4.5,4.2,9.8,4.3,13.2,4.3c11.8,0,17.1-9.8,23-21.4c7.2-14.2,13.7-30.7,13.7-30.7s-8.1,44.6,13.9,44.6
	c8,0,16.1-10.4,19.7-15.7c0,0.1,0,0.1,0,0.1s0.2-0.3,0.6-1c0.8-1.3,1.3-2.1,1.3-2.1s0-0.1,0-0.2c3.2-5.6,10.4-18.3,21.1-39.4
	c13.8-27.2,27.1-61.2,27.1-61.2s1.2,8.3,5.3,22.1c2.4,8.1,7.4,17,11.4,25.6c-3.2,4.5-5.2,7-5.2,7s0,0,0.1,0.1
	c-2.6,3.4-5.4,7.1-8.5,10.7c-10.9,13-23.9,27.9-25.7,32.2c-2.1,5.1-1.6,8.8,2.4,11.8c2.9,2.2,8.1,2.5,13.4,2.2
	c9.8-0.7,16.7-3.1,20.1-4.6c5.3-1.9,11.5-4.8,17.3-9.1c10.7-7.9,17.2-19.2,16.6-34.1c-0.3-8.2-3-16.4-6.3-24.1
	c1-1.4,1.9-2.8,2.9-4.2c16.9-24.7,30-51.8,30-51.8s1.2,8.3,5.3,22.1c2,7,6.1,14.6,9.7,22c-15.9,12.9-25.7,27.9-29.2,37.7
	c-6.3,18.2-1.4,26.4,7.9,28.3c4.2,0.9,10.2-1.1,14.6-3c5.6-1.8,12.2-4.9,18.5-9.5c10.7-7.9,21-18.9,20.4-33.8
	c-0.3-6.8-2.1-13.5-4.6-20c13.5-5.6,30.9-8.7,53.1-6.1c47.6,5.6,57,35.3,55.2,47.8c-1.8,12.5-11.8,19.3-15.1,21.4
	c-3.3,2.1-4.4,2.8-4.1,4.3c0.4,2.2,2,2.1,4.8,1.7c3.9-0.7,25-10.1,25.9-33.1C548.9,267.8,520.9,235.7,471.4,236z M104.2,359.8
	C88.4,377,66.4,383.5,56.9,378c-10.2-5.9-6.2-31.3,13.2-49.5c11.8-11.1,27-21.4,37.1-27.7c2.3-1.4,5.7-3.4,9.8-5.9
	c0.7-0.4,1.1-0.6,1.1-0.6l0,0c0.8-0.5,1.6-1,2.4-1.5C127.6,318.8,120.8,341.7,104.2,359.8z M219.2,281.6c-5.5,13.4-17,47.7-24,45.8
	c-6-1.6-9.7-27.6-1.2-53.3c4.3-12.9,13.4-28.3,18.7-34.3c8.6-9.6,18.1-12.8,20.4-8.9C236,236,222.6,273.2,219.2,281.6z M314.1,327
	c-2.3,1.2-4.5,2-5.5,1.4c-0.7-0.4,1-2,1-2s11.9-12.8,16.6-18.6c2.7-3.4,5.9-7.4,9.3-11.9c0,0.4,0,0.9,0,1.3
	C335.5,312.5,320.7,322.8,314.1,327z M387.3,310.3c-1.7-1.2-1.4-5.2,4.3-17.7c2.2-4.9,7.4-13.1,16.3-21c1,3.2,1.7,6.3,1.6,9.2
	C409.4,300.1,395.6,307.3,387.3,310.3z" />
		</symbol>

		<symbol id="icon-vue" viewBox="0 0 32 32">
			<path
				d="M32 2.147h-13.253l-2.747 4.733-2.747-4.733h-13.253l16 27.707zM16 18.773l-9.12-15.8h5.907l3.213 5.573 3.213-5.573h5.907z"></path>
		</symbol>


		<symbol id="icon-rabbitmq" viewBox="-0.5 0 257 257" version="1.1"
			xmlns="http://www.w3.org/2000/svg" xmlns:xlink="http://www.w3.org/1999/xlink"
			preserveAspectRatio="xMidYMid">

			<path
				d="M245.733754,102.437432 L163.822615,102.437432 C161.095475,102.454639 158.475045,101.378893 156.546627,99.4504749 C154.618208,97.5220567 153.542463,94.901627 153.559669,92.174486 L153.559669,10.2633479 C153.559723,7.54730691 152.476409,4.94343327 150.549867,3.02893217 C148.623325,1.11443107 146.012711,0.0474632135 143.296723,0.0645452326 L112.636172,0.0645452326 C109.920185,0.0474632135 107.30957,1.11443107 105.383029,3.02893217 C103.456487,4.94343327 102.373172,7.54730691 102.373226,10.2633479 L102.373226,92.174486 C102.390432,94.901627 101.314687,97.5220567 99.3862689,99.4504749 C97.4578506,101.378893 94.8374209,102.454639 92.11028,102.437432 L61.4497286,102.437432 C58.7225877,102.454639 56.102158,101.378893 54.1737397,99.4504749 C52.2453215,97.5220567 51.1695761,94.901627 51.1867826,92.174486 L51.1867826,10.2633479 C51.203989,7.5362069 50.1282437,4.91577722 48.1998255,2.98735896 C46.2714072,1.05894071 43.6509775,-0.0168046317 40.9238365,0.000198540275 L10.1991418,0.000198540275 C7.48310085,0.000198540275 4.87922722,1.08366231 2.96472611,3.0102043 C1.05022501,4.93674629 -0.0167428433,7.54736062 0.000135896304,10.2633479 L0.000135896304,245.79796 C-0.0168672756,248.525101 1.05887807,251.14553 2.98729632,253.073949 C4.91571457,255.002367 7.53614426,256.078112 10.2632852,256.061109 L245.733754,256.061109 C248.460895,256.078112 251.081324,255.002367 253.009743,253.073949 C254.938161,251.14553 256.013906,248.525101 255.9967,245.79796 L255.9967,112.892808 C256.066222,110.132577 255.01362,107.462105 253.07944,105.491659 C251.14526,103.521213 248.4948,102.419191 245.733754,102.437432 Z M204.553817,189.4159 C204.570741,193.492844 202.963126,197.408658 200.08629,200.297531 C197.209455,203.186403 193.300387,204.810319 189.223407,204.810319 L168.697515,204.810319 C164.620535,204.810319 160.711467,203.186403 157.834632,200.297531 C154.957796,197.408658 153.350181,193.492844 153.367105,189.4159 L153.367105,168.954151 C153.350181,164.877207 154.957796,160.961393 157.834632,158.07252 C160.711467,155.183648 164.620535,153.559732 168.697515,153.559732 L189.223407,153.559732 C193.300387,153.559732 197.209455,155.183648 200.08629,158.07252 C202.963126,160.961393 204.570741,164.877207 204.553817,168.954151 L204.553817,189.4159 L204.553817,189.4159 Z"></path>

		</symbol>

		<symbol id="icon-laravel" xmlns="http://www.w3.org/2000/svg" viewBox="1 5 30 21">
			<path
				d="M 7.5566406 5.0058594 C 6.8996406 5.0338594 1.8892031 5.4591875 1.5332031 5.4921875 C 1.1772031 5.5211875 0.784625 5.6858281 1.140625 6.5488281 C 1.496625 7.4118281 7.1857031 19.951406 7.3457031 20.316406 C 7.5047031 20.680406 7.9178125 21.275156 8.8828125 21.035156 C 9.8718125 20.791156 13.302734 19.874094 15.177734 19.371094 C 16.166734 21.207094 18.1875 24.928938 18.5625 25.460938 C 19.0595 26.174937 19.405922 26.053453 20.169922 25.814453 C 20.769922 25.627453 29.525922 22.407141 29.919922 22.244141 C 30.313922 22.076141 30.556062 21.961688 30.289062 21.554688 C 30.092063 21.257687 27.781266 18.092594 26.572266 16.433594 C 27.402266 16.208594 30.350063 15.407406 30.664062 15.316406 C 31.033063 15.219406 31.084812 15.038594 30.882812 14.808594 C 30.685813 14.578594 27.940031 11.064703 27.457031 10.470703 C 26.974031 9.8767031 26.734453 9.9804375 26.439453 10.023438 C 26.139453 10.066437 22.666672 10.665422 22.263672 10.732422 C 21.860672 10.804422 21.607469 10.967266 21.855469 11.322266 C 22.075469 11.638266 24.359234 14.952641 24.865234 15.681641 L 15.785156 17.904297 L 8.5605469 5.5605469 C 8.2745469 5.1245469 8.2126406 4.9718594 7.5566406 5.0058594 z M 7.4433594 5.8632812 C 7.6123594 5.8532813 7.5932969 5.8910937 7.6542969 5.9960938 C 7.6542969 5.9960938 14.319641 17.760797 14.431641 17.966797 C 14.553641 18.172797 14.484953 18.235766 14.376953 18.259766 C 14.268953 18.283766 9.1821563 19.528797 8.9101562 19.591797 C 8.6381562 19.653797 8.6384688 19.625297 8.6054688 19.529297 C 8.5724688 19.433297 2.5605625 6.7449375 2.4765625 6.5859375 C 2.3925625 6.4279375 2.3965625 6.3027344 2.4765625 6.3027344 C 2.5565625 6.3027344 7.2793594 5.8722812 7.4433594 5.8632812 z M 26.771484 10.845703 C 26.838859 10.861328 26.909641 10.911797 26.994141 11.029297 C 27.163141 11.264297 29.459828 14.240469 29.548828 14.355469 C 29.632828 14.466469 29.482156 14.534031 29.285156 14.582031 C 29.088156 14.625031 25.835938 15.449219 25.835938 15.449219 L 23.177734 11.720703 C 23.102734 11.610703 23.042469 11.504469 23.230469 11.480469 C 23.417469 11.456469 26.436266 10.894234 26.572266 10.865234 C 26.640266 10.848234 26.704109 10.830078 26.771484 10.845703 z M 25.527344 16.617188 C 25.590094 16.624312 25.642891 16.66875 25.712891 16.78125 C 25.849891 17.01225 28.63875 20.881719 28.71875 21.011719 C 28.79875 21.140719 28.881047 21.227359 28.623047 21.318359 C 28.370047 21.414359 20.014469 24.295188 19.855469 24.367188 C 19.691469 24.439187 19.563422 24.462391 19.357422 24.150391 C 19.151422 23.838391 16.433594 19.03125 16.433594 19.03125 L 25.28125 16.677734 C 25.39125 16.641734 25.464594 16.610063 25.527344 16.617188 z" />
		</symbol>

		<symbol id="icon-javascript" viewBox="0 0 32 32">
			<path
				d="M0 0h32v32h-32zM29.379 24.368c-0.233-1.46-1.184-2.687-4.004-3.831-0.981-0.46-2.072-0.78-2.396-1.52-0.121-0.44-0.14-0.68-0.061-0.94 0.2-0.861 1.22-1.12 2.020-0.88 0.52 0.16 1 0.56 1.301 1.2 1.379-0.901 1.379-0.901 2.34-1.5-0.36-0.56-0.539-0.801-0.781-1.040-0.84-0.94-1.959-1.42-3.779-1.379l-0.94 0.119c-0.901 0.22-1.76 0.7-2.28 1.34-1.52 1.721-1.081 4.721 0.759 5.961 1.82 1.36 4.481 1.659 4.821 2.94 0.32 1.56-1.16 2.060-2.621 1.88-1.081-0.24-1.68-0.781-2.34-1.781l-2.44 1.401c0.28 0.64 0.6 0.919 1.080 1.479 2.32 2.341 8.12 2.221 9.161-1.339 0.039-0.12 0.32-0.94 0.099-2.2zM17.401 14.708h-2.997c0 2.584-0.012 5.152-0.012 7.74 0 1.643 0.084 3.151-0.184 3.615-0.44 0.919-1.573 0.801-2.088 0.64-0.528-0.261-0.796-0.621-1.107-1.14-0.084-0.14-0.147-0.261-0.169-0.261l-2.433 1.5c0.407 0.84 1 1.563 1.765 2.023 1.14 0.68 2.672 0.9 4.276 0.54 1.044-0.301 1.944-0.921 2.415-1.881 0.68-1.24 0.536-2.76 0.529-4.461 0.016-2.739 0-5.479 0-8.239z"></path>
		</symbol>


		<symbol id="icon-php" viewBox="0 0 32 32" fill="none" xmlns="http://www.w3.org/2000/svg">
			<circle cx="16" cy="16" r="14" fill="#1F212E" />
			<path
				d="M14.4392 10H16.1192L15.6444 12.5242H17.154C17.9819 12.5419 18.5986 12.7269 19.0045 13.0793C19.4184 13.4316 19.5402 14.1014 19.3698 15.0881L18.5541 19.4889H16.8497L17.6288 15.2863C17.7099 14.8457 17.6856 14.533 17.5558 14.348C17.426 14.163 17.146 14.0705 16.7158 14.0705L15.3644 14.0573L14.3661 19.4889H12.6861L14.4392 10Z"
				fill="#7e87a1" />
			<path fill-rule="evenodd" clip-rule="evenodd"
				d="M6.74092 12.5243H10.0036C10.9612 12.533 11.6552 12.8327 12.0854 13.4229C12.5156 14.0132 12.6576 14.8193 12.5115 15.8414C12.4548 16.3085 12.3289 16.7665 12.1341 17.2159C11.9474 17.6652 11.6878 18.0704 11.355 18.4317C10.9491 18.8898 10.5149 19.1805 10.0523 19.304C9.58969 19.4274 9.11076 19.489 8.61575 19.489H7.15484L6.69222 22H5L6.74092 12.5243ZM7.43485 17.9956L8.16287 14.0441H8.40879C8.49815 14.0441 8.5914 14.0396 8.6888 14.0309C9.33817 14.0221 9.87774 14.0882 10.308 14.2291C10.7462 14.37 10.8923 14.9031 10.7462 15.8282C10.5678 16.9296 10.2186 17.5727 9.69926 17.7577C9.1799 17.934 8.53053 18.0176 7.75138 18.0088H7.58094C7.53224 18.0088 7.48355 18.0043 7.43485 17.9956Z"
				fill="#7e87a1" />
			<path fill-rule="evenodd" clip-rule="evenodd"
				d="M24.4365 12.5243H21.1738L19.4329 22H21.1251L21.5878 19.489H23.0487C23.5437 19.489 24.0226 19.4274 24.4852 19.304C24.9479 19.1805 25.382 18.8898 25.7879 18.4317C26.1207 18.0704 26.3803 17.6652 26.567 17.2159C26.7618 16.7665 26.8877 16.3085 26.9444 15.8414C27.0905 14.8193 26.9486 14.0132 26.5183 13.4229C26.0881 12.8327 25.3942 12.533 24.4365 12.5243ZM22.5958 14.0441L21.8678 17.9956C21.9165 18.0043 21.9652 18.0088 22.0139 18.0088H22.1843C22.9635 18.0176 23.6128 17.934 24.1322 17.7577C24.6515 17.5727 25.0007 16.9296 25.1792 15.8282C25.3253 14.9031 25.1792 14.37 24.7409 14.2291C24.3107 14.0882 23.7711 14.0221 23.1217 14.0309C23.0243 14.0396 22.9311 14.0441 22.8417 14.0441H22.5958Z"
				fill="#7e87a1" />
		</symbol>

		<symbol id="icon-github" viewBox="0 0 32 32">
			<path
				d="M16 0.395c-8.836 0-16 7.163-16 16 0 7.069 4.585 13.067 10.942 15.182 0.8 0.148 1.094-0.347 1.094-0.77 0-0.381-0.015-1.642-0.022-2.979-4.452 0.968-5.391-1.888-5.391-1.888-0.728-1.849-1.776-2.341-1.776-2.341-1.452-0.993 0.11-0.973 0.11-0.973 1.606 0.113 2.452 1.649 2.452 1.649 1.427 2.446 3.743 1.739 4.656 1.33 0.143-1.034 0.558-1.74 1.016-2.14-3.554-0.404-7.29-1.777-7.29-7.907 0-1.747 0.625-3.174 1.649-4.295-0.166-0.403-0.714-2.030 0.155-4.234 0 0 1.344-0.43 4.401 1.64 1.276-0.355 2.645-0.532 4.005-0.539 1.359 0.006 2.729 0.184 4.008 0.539 3.054-2.070 4.395-1.64 4.395-1.64 0.871 2.204 0.323 3.831 0.157 4.234 1.026 1.12 1.647 2.548 1.647 4.295 0 6.145-3.743 7.498-7.306 7.895 0.574 0.497 1.085 1.47 1.085 2.963 0 2.141-0.019 3.864-0.019 4.391 0 0.426 0.288 0.925 1.099 0.768 6.354-2.118 10.933-8.113 10.933-15.18 0-8.837-7.164-16-16-16z"></path>
		</symbol>

		<symbol id="icon-redis" viewBox="0 -2 28 28" xmlns="http://www.w3.org/2000/svg">
			<path
				d="m27.994 14.729c-.012.267-.365.566-1.091.945-1.495.778-9.236 3.967-10.883 4.821-.589.419-1.324.67-2.116.67-.641 0-1.243-.164-1.768-.452l.019.01c-1.304-.622-9.539-3.95-11.023-4.659-.741-.35-1.119-.653-1.132-.933v2.83c0 .282.39.583 1.132.933 1.484.709 9.722 4.037 11.023 4.659.504.277 1.105.44 1.744.44.795 0 1.531-.252 2.132-.681l-.011.008c1.647-.859 9.388-4.041 10.883-4.821.76-.396 1.096-.7 1.096-.982s0-2.791 0-2.791z" />
			<path
				d="m27.992 10.115c-.013.267-.365.565-1.09.944-1.495.778-9.236 3.967-10.883 4.821-.59.421-1.326.672-2.121.672-.639 0-1.24-.163-1.763-.449l.019.01c-1.304-.627-9.539-3.955-11.023-4.664-.741-.35-1.119-.653-1.132-.933v2.83c0 .282.39.583 1.132.933 1.484.709 9.721 4.037 11.023 4.659.506.278 1.108.442 1.749.442.793 0 1.527-.251 2.128-.677l-.011.008c1.647-.859 9.388-4.043 10.883-4.821.76-.397 1.096-.7 1.096-.984s0-2.791 0-2.791z" />
			<path
				d="m27.992 5.329c.014-.285-.358-.534-1.107-.81-1.451-.533-9.152-3.596-10.624-4.136-.528-.242-1.144-.383-1.794-.383-.734 0-1.426.18-2.035.498l.024-.012c-1.731.622-9.924 3.835-11.381 4.405-.729.287-1.086.552-1.073.834v2.83c0 .282.39.583 1.132.933 1.484.709 9.721 4.038 11.023 4.66.504.277 1.105.439 1.744.439.795 0 1.531-.252 2.133-.68l-.011.008c1.647-.859 9.388-4.043 10.883-4.821.76-.397 1.096-.7 1.096-.984s0-2.791 0-2.791h-.009zm-17.967 2.684 6.488-.996-1.96 2.874zm14.351-2.588-4.253 1.68-3.835-1.523 4.246-1.679 3.838 1.517zm-11.265-2.785-.628-1.157 1.958.765 1.846-.604-.499 1.196 1.881.7-2.426.252-.543 1.311-.879-1.457-2.8-.252 2.091-.754zm-4.827 1.632c1.916 0 3.467.602 3.467 1.344s-1.559 1.344-3.467 1.344-3.474-.603-3.474-1.344 1.553-1.344 3.474-1.344z" />
		</symbol>


		<symbol id="icon-linkedin" xmlns="http://www.w3.org/2000/svg" viewBox="0 1 24 23">
			<path
				d="M4.98 3.5c0 1.381-1.11 2.5-2.48 2.5s-2.48-1.119-2.48-2.5c0-1.38 1.11-2.5 2.48-2.5s2.48 1.12 2.48 2.5zm.02 4.5h-5v16h5v-16zm7.982 0h-4.968v16h4.969v-8.399c0-4.67 6.029-5.052 6.029 0v8.399h4.988v-10.131c0-7.88-8.922-7.593-11.018-3.714v-2.155z" />
		</symbol>

		<symbol id="icon-facebook" xmlns="http://www.w3.org/2000/svg" viewBox="6 0 12 24">
			<path
				d="M9 8h-3v4h3v12h5v-12h3.642l.358-4h-4v-1.667c0-.955.192-1.333 1.115-1.333h2.885v-5h-3.808c-3.596 0-5.192 1.583-5.192 4.615v3.385z" />
		</symbol>

		<symbol id="icon-aws" xmlns="http://www.w3.org/2000/svg" viewBox="0 4.8 24 15">
			<path
				d="m12.248 6.685c-.656 2.694-.614 2.55-1.209 5.014-.013.227-.201.406-.43.406-.025 0-.05-.002-.074-.006h.003-.675c-.02.004-.044.006-.067.006-.203 0-.37-.151-.396-.346v-.002c-.577-1.846-1.35-4.41-1.87-6.125-.192-.633-.066-.618.436-.605.174.005.342 0 .515 0 .012-.001.026-.002.041-.002.196 0 .358.145.385.333v.002c.169.605.281 1.069 1.246 4.88.018.075.042.146.066.215h.051c.023-.094.051-.182.075-.277q.548-2.313 1.092-4.63c.113-.48.314-.525.8-.525h.356c.32.005.422.07.502.389.281 1.097 1.102 4.77 1.251 5.174.24-.858-.084.37 1.336-5.108.098-.379.192-.454.577-.454h.591c.253.005.328.084.267.333-.113.446-.136.464-1.935 6.228-.146.464-.197.506-.684.506h-.497c-.342 0-.431-.061-.515-.394-.202-.759-1.092-4.485-1.238-5.01zm-6.364 5.211c.068.139.208.233.37.233.114 0 .216-.046.291-.121l.295-.197c.32-.211.342-.295.169-.633-.186-.354-.296-.773-.296-1.218 0-.015 0-.03 0-.045v.002c0-.146.028-2.61-.042-3.13-.062-.87-.665-1.584-1.471-1.811l-.014-.003c-.353-.098-.758-.154-1.177-.154-.126 0-.252.005-.375.015l.016-.001c-.736.029-1.42.224-2.025.547l.025-.012c-.091.049-.159.13-.191.227l-.001.003c-.026.118-.041.254-.041.393 0 .061.003.122.008.182l-.001-.008c.028.277.122.328.384.24.24-.08.469-.182.708-.253.345-.128.743-.202 1.159-.202.323 0 .635.045.931.128l-.024-.006c.317.095.564.334.668.639l.002.007c.077.258.122.554.122.861 0 .094-.004.188-.012.28l.001-.012c0 .258-.005.258-.258.211-.43-.107-.923-.169-1.431-.169-.187 0-.373.008-.556.025l.024-.002c-.726.053-1.36.406-1.787.933l-.004.005c-.26.36-.416.811-.416 1.298 0 .197.025.387.073.569l-.003-.016c.104.682.588 1.228 1.225 1.422l.012.003c.28.1.603.158.94.158.667 0 1.282-.227 1.77-.608l-.006.005c.178-.131.338-.29.52-.446.146.234.272.454.417.656zm-.72-2.887h.005c.111 0 .201.09.201.201 0 .014-.001.027-.004.041v-.001c-.01.178.005.356-.014.534-.05.523-.377.959-.83 1.164l-.009.004c-.294.154-.641.245-1.01.245-.075 0-.149-.004-.222-.011l.009.001c-.529-.031-.946-.467-.946-1.001 0-.082.01-.162.029-.239l-.001.007c.026-.548.46-.987 1.004-1.021h.003c.21-.034.452-.053.698-.053.388 0 .766.048 1.126.138l-.032-.007zm16.346 3.051c.825-.277 1.408-1.043 1.408-1.945 0-.141-.014-.279-.041-.412l.002.013c-.107-.653-.564-1.177-1.169-1.379l-.012-.004c-.912-.286-1.659-.575-2.383-.905l.129.053c-.209-.105-.351-.315-.356-.559v-.001c-.006-.037-.009-.079-.009-.122 0-.419.318-.763.726-.805h.003c.211-.05.453-.078.702-.078.217 0 .43.022.635.063l-.02-.003c.342.066.67.197 1.003.295.131.042.277.098.366-.075.046-.097.073-.211.073-.33 0-.298-.166-.557-.411-.689l-.004-.002c-.494-.236-1.074-.373-1.686-.373-.546 0-1.066.11-1.54.308l.026-.01c-.725.288-1.228.984-1.228 1.797 0 .779.462 1.451 1.127 1.755l.012.005c.361.174.754.277 1.134.417s.759.272 1.13.426c.256.142.427.411.427.72 0 .286-.146.537-.368.684l-.003.002c-1.298.72-3.04-.113-3.243-.178-.154-.051-.248.01-.295.174-.038.089-.06.193-.06.302 0 .369.255.679.599.761l.005.001c.531.213 1.146.336 1.79.336.546 0 1.072-.089 1.563-.253l-.035.01zm-7.634 7.625c2.498-.268 4.766-1.052 6.763-2.244l-.076.042c.375-.22.726-.48 1.082-.736.342-.24.15-.862-.53-.572-2.344 1.029-5.066 1.687-7.925 1.821l-.051.002c-.3.015-.651.023-1.004.023-1.152 0-2.284-.088-3.389-.258l.123.016c-3.117-.449-5.924-1.458-8.429-2.927l.109.059c-.088-.059-.189-.107-.297-.139l-.008-.002c-.23-.051-.361.22-.113.454 3.069 2.838 7.189 4.578 11.716 4.578h.014-.001c.675-.038 1.35-.042 2.015-.117zm8.187-4.32c.694.038.909.277.736.946-.178.694-.436 1.369-.651 2.053-.042.136-.197.295-.038.413.174.122.305-.047.422-.154.455-.433.813-.962 1.044-1.555l.01-.029c.258-.564.408-1.224.408-1.919 0-.016 0-.031 0-.047v.002c-.01-.29-.084-.413-.366-.492-.224-.069-.487-.122-.757-.148l-.016-.001c-.183-.023-.394-.036-.609-.036-.836 0-1.626.197-2.327.546l.03-.014c-.155.084-.289.176-.412.28l.004-.003c-.051.042-.15.248.113.286.024.002.053.003.081.003.069 0 .137-.006.202-.018l-.007.001c.526-.075 1.134-.118 1.751-.118.134 0 .267.002.4.006h-.019z" />
		</symbol>

		<symbol id="icon-apache" xmlns="http://www.w3.org/2000/svg" role="img"
			viewBox="5.21 0 13.58 24">
			<title>Apache icon</title>
			<path
				d="M15.826 0a.776.776 0 0 0-.404.114c-.376.222-1.002.851-1.748 1.763l-.156.192c-.198.246-.403.512-.614.793a38.775 38.775 0 0 0-2.016 2.971l-.022.036-.044.072a40.932 40.932 0 0 0-1.709 3.081 25.602 25.602 0 0 0-1.1 2.557c-.091.251-.174.493-.25.726-.062.199-.122.398-.178.596-.133.467-.248.934-.342 1.398l.001.002-.013.061a14 14 0 0 0-.233 1.692l-.005.059c-.28-.449-1.029-.886-1.028-.882.537.778.944 1.55 1.004 2.308-.287.059-.681-.026-1.136-.194.474.436.83.556.969.588-.436.027-.889.327-1.346.671.668-.273 1.208-.38 1.595-.293a131.873 131.873 0 0 0-1.843 5.688.535.535 0 0 0 .364-.354c.11-.369.837-2.786 1.977-5.964l.098-.273.028-.076c.12-.333.245-.673.374-1.02l.089-.237.002-.005-.604-1.193.604 1.192c.119-.317.24-.638.365-.963l.052-.136.053-.137.041-.104-.041.105-.053.136-.052.136c-.125.325-.246.646-.365.963l.106.208.094-.01.01-.028c.153-.417.304-.824.454-1.22l.005-.014a103.604 103.604 0 0 0-.458 1.234l-.01.028-.067.183c-.118.325-.237.655-.356.993l-.005.015-.051.143c-.08.228-.15.433-.309.899.263.12.474.436.674.794a1.44 1.44 0 0 0-.466-.989c1.296.058 2.413-.269 2.991-1.217.052-.085.099-.173.141-.268-.262.333-.588.474-1.2.439.902-.404 1.354-.791 1.754-1.433a6.71 6.71 0 0 0 .281-.503c-.789.81-1.702 1.04-2.665.865h-.002l-.041-.007c.863-.107 2.01-.752 2.752-1.548.342-.367.652-.8.939-1.306.214-.377.414-.795.605-1.258.167-.404.327-.842.482-1.317a2.65 2.65 0 0 1-.81.261 4.998 4.998 0 0 1-.138.022l.002-.001.003-.001c.045-.007.089-.013.133-.021.045-.008.09-.016.134-.026l-.133.024-.132.023c.802-.31 1.308-.907 1.676-1.637a2.877 2.877 0 0 1-.968.424 3.217 3.217 0 0 1-.171.031l-.043.006.001-.001.009-.001.032-.005a2.887 2.887 0 0 0 .157-.029l.014-.003-.016.003-.194.033c.278-.117.513-.247.717-.401a2.858 2.858 0 0 0 .411-.391c.08-.095.155-.198.225-.31l.064-.104.077-.152a9.024 9.024 0 0 0 .368-.851l.031-.088c.028-.085.052-.161.07-.227.027-.099.044-.178.053-.236a.731.731 0 0 1-.094.064c-.243.145-.66.277-.996.339l-.099.011-.001.001-2.267.249-.012.024-.077.158-.235.488-.044.093.044-.093c.079-.166.157-.329.235-.488l.077-.158c.004-.009.009-.017.012-.026l-.084.009-.067-.132a54.24 54.24 0 0 0-.378.763l-.204.424a72.02 72.02 0 0 0-1.092 2.406 102.271 102.271 0 0 0-1.081 2.603l.086-.216a99.75 99.75 0 0 1 .995-2.387 73.112 73.112 0 0 1 1.092-2.407l.204-.424c.118-.244.237-.485.358-.724l.02-.038c.191-.378.384-.75.579-1.116.208-.39.42-.771.633-1.141a33.1 33.1 0 0 1 .672-1.119l.04-.064c.224-.354.45-.695.677-1.021a16.736 16.736 0 0 1 1.522-1.899l-.058.062c-.16.176-.644.741-1.375 1.863.704-.035 1.785-.179 2.667-.33.262-1.47-.257-2.142-.257-2.142S16.418.007 15.83.001zm-1.648 7.507c.66-.304.956-.579 1.242-.976.076-.11.153-.224.229-.343.233-.363.461-.764.665-1.162.197-.384.371-.765.504-1.109a5.76 5.76 0 0 0 .2-.6c.041-.157.074-.307.099-.449-.883.15-1.964.295-2.668.329a29.873 29.873 0 0 0-.696 1.122c-.204.345-.422.723-.65 1.137a50.238 50.238 0 0 0-1.193 2.299l2.267-.249zm3.628-5.309v.066h.156v.439h.072v-.439h.157v-.066h-.384zm.463 0v.506h.066v-.401l.172.348h.046l.172-.348v.401h.066v-.506h-.087l-.174.353-.175-.353h-.087zm-4.008 5.301l-.102.016.001-.001.1-.016zm-.09.012l-.005.002.005-.002zm-2.74 1.242l-.106.227-.133.287a77.678 77.678 0 0 0-.921 2.085 93.883 93.883 0 0 0-.999 2.446c-.148.378-.298.765-.449 1.163l-.005.014a77.678 77.678 0 0 1 2.374-5.709l.133-.287.106-.226z" />
		</symbol>

		<symbol id="icon-git" xmlns="http://www.w3.org/2000/svg" fill-rule="evenodd"
			clip-rule="evenodd" viewBox="0 0 24 24">
			<path
				d="M23.548 10.931l-10.479-10.478c-.302-.302-.698-.453-1.093-.453-.396 0-.791.151-1.093.453l-2.176 2.176 2.76 2.76c.642-.216 1.377-.071 1.889.44.513.515.658 1.256.435 1.9l2.66 2.66c.644-.222 1.387-.078 1.901.437.718.718.718 1.881 0 2.6-.719.719-1.883.719-2.602 0-.54-.541-.674-1.334-.4-2l-2.481-2.481v6.529c.175.087.34.202.487.348.717.717.717 1.881 0 2.601-.719.718-1.884.718-2.601 0-.719-.72-.719-1.884 0-2.601.177-.178.383-.312.602-.402v-6.589c-.219-.089-.425-.223-.602-.401-.544-.544-.676-1.343-.396-2.011l-2.721-2.721-7.185 7.185c-.302.302-.453.697-.453 1.093 0 .395.151.791.453 1.093l10.479 10.478c.302.302.697.452 1.092.452.396 0 .791-.15 1.093-.452l10.431-10.428c.302-.303.452-.699.452-1.094 0-.396-.15-.791-.452-1.093" />
		</symbol>

		<!-- <symbol id="icon-go"  version="1.1" xmlns="http://www.w3.org/2000/svg" viewBox="0 0 24 24" >
			<title>Go icon</title>
			<path
				d="M1.811 10.715c-.047 0-.058-.023-.035-.059l.246-.315c.023-.035.081-.058.128-.058h4.172c.046 0 .058.035.035.07l-.199.303c-.023.036-.082.07-.117.07l-4.23-.011zM.047 11.79c-.047 0-.059-.023-.035-.058l.245-.316c.023-.035.082-.058.129-.058h5.328c.047 0 .07.035.058.07l-.093.28c-.012.047-.058.07-.105.07l-5.527.012zm2.828 1.075c-.047 0-.059-.035-.035-.07l.163-.292c.023-.035.07-.07.117-.07h2.337c.047 0 .07.035.07.082l-.023.28c0 .047-.047.082-.082.082l-2.547-.012zM15.004 10.505c-.736.187-1.239.327-1.963.514-.176.046-.187.058-.34-.117-.174-.199-.303-.327-.548-.444-.737-.362-1.45-.257-2.115.175-.795.514-1.204 1.274-1.192 2.22.011.935.654 1.706 1.577 1.835.795.105 1.46-.175 1.987-.771.105-.129.198-.269.315-.433H10.47c-.245 0-.304-.152-.222-.35.152-.362.432-.97.596-1.274a.315.315 0 0 1 .292-.187h4.253c-.023.316-.023.631-.07.947a4.983 4.983 0 0 1-.958 2.29c-.841 1.11-1.94 1.8-3.33 1.986-1.145.152-2.209-.07-3.143-.77-.865-.655-1.356-1.52-1.484-2.595-.152-1.274.222-2.419.993-3.424.83-1.086 1.928-1.776 3.272-2.021 1.098-.199 2.15-.07 3.096.572.62.41 1.063.97 1.356 1.648.07.105.023.164-.117.199 M18.872 16.967c-1.064-.024-2.034-.328-2.852-1.029a3.665 3.665 0 0 1-1.262-2.255c-.21-1.32.152-2.489.947-3.529.853-1.122 1.881-1.706 3.272-1.951 1.192-.21 2.314-.094 3.33.596.923.63 1.496 1.484 1.648 2.605.198 1.578-.257 2.863-1.344 3.962-.771.783-1.718 1.273-2.805 1.495-.315.059-.63.07-.934.106zm2.78-4.721c-.011-.152-.011-.269-.034-.386-.21-1.157-1.274-1.811-2.384-1.554-1.087.245-1.788.935-2.045 2.033-.21.912.234 1.835 1.075 2.209.643.28 1.285.245 1.905-.07.923-.48 1.425-1.227 1.484-2.232z" />
		</symbol> -->

		<symbol id="icon-go" viewBox="0 -160 512 512" version="1.1" xmlns="http://www.w3.org/2000/svg" xmlns:xlink="http://www.w3.org/1999/xlink" preserveAspectRatio="xMidYMid">
			<g>
				<path d="M292.533152,13.2950639 L293.657233,14.0455076 C306.869315,22.7704678 316.342129,34.7361275 322.574244,49.1946331 C324.069951,51.4381943 323.072813,52.6846171 320.081398,53.4324709 L315.017741,54.7277932 C303.571167,57.6768058 294.487155,60.1566573 283.191384,63.10567 L276.74841,64.7843862 C274.428264,65.3583626 273.787695,65.1170696 271.320433,62.3073717 L270.972336,61.9081465 C267.453024,57.9195933 264.816991,55.2559574 260.154613,52.878088 L259.255961,52.4353326 C243.551033,44.7075107 228.344673,46.9510719 214.135452,56.1746012 C197.184101,67.1431227 188.459141,83.3466202 188.708425,103.538671 C188.95771,123.481438 202.668362,139.93422 222.361843,142.67635 C239.313195,144.919911 253.522416,138.937081 264.740222,126.223568 C266.983783,123.481438 268.978059,120.490023 271.470905,117.000039 L223.358982,117.000039 C218.124006,117.000039 216.877583,113.759339 218.622575,109.521501 L219.486848,107.487264 C222.690544,100.033179 227.659682,89.3185944 230.887235,83.1925665 L231.591356,81.8743455 C232.452883,80.3801337 234.202861,78.3609287 237.568203,78.3609287 L317.791861,78.3603482 C321.394911,66.9456209 327.24084,56.159659 335.038473,45.9539335 C353.236247,22.0226141 375.17329,9.55838523 404.838154,4.32340907 C430.265181,-0.163713323 454.196501,2.32913245 475.884259,17.0369225 C495.577741,30.4982897 507.792685,48.6960639 511.033385,72.6273834 C515.271222,106.280802 505.549124,133.702105 482.365658,157.134856 C465.912876,173.836922 445.720825,184.306875 422.537359,189.043282 C415.806676,190.289704 409.075992,190.538989 402.594593,191.286843 C379.909697,190.788274 359.219077,184.306875 341.769156,169.3498 C329.496056,158.740849 321.041799,145.701725 316.840932,130.522127 C313.926247,136.409796 310.44016,142.04853 306.370746,147.412757 C288.422257,171.094792 264.989506,185.802582 235.324641,189.791135 C210.894753,193.031835 188.209856,188.295428 168.26709,173.338353 C149.820031,159.378417 139.350079,140.931358 136.607949,117.997177 C133.367249,90.8251575 141.344356,66.3952689 157.797138,44.9567952 C175.496343,21.7733295 198.929093,7.06553943 227.59682,1.8305633 C250.59563,-2.32879605 272.633891,0.235689133 292.533152,13.2950639 L292.533152,13.2950639 Z M411.120284,49.0171223 L410.322415,49.1946331 C387.138949,54.4296092 372.181875,69.1373993 366.697614,92.5701496 C362.210492,112.014347 371.683306,131.707829 389.631795,139.684935 C403.342447,145.667765 417.053099,144.919911 430.265181,138.189228 C449.958663,127.96856 460.6779,112.014347 461.924323,90.575873 C461.675038,87.3351735 461.675038,84.8423277 461.176469,82.3494819 C456.739764,57.9476028 434.511926,44.025432 411.120284,49.0171223 L411.120284,49.0171223 Z M116.415898,94.5644262 C117.413036,94.5644262 117.911605,95.3122799 117.911605,96.3094183 L117.413036,102.292248 C117.413036,103.289387 116.415898,104.03724 115.668044,104.03724 L61.3240061,103.787956 C60.3268678,103.787956 60.0775833,103.040102 60.5761524,102.292248 L64.0661365,96.0601337 C64.5647057,95.3122799 65.561844,94.5644262 66.5589823,94.5644262 L116.415898,94.5644262 Z M121.900159,71.6302451 C122.897297,71.6302451 123.395866,72.3780988 123.146581,73.1259525 L121.152305,79.1087824 C120.90302,80.1059207 119.905882,80.6044899 118.908744,80.6044899 L0.99713831,80.8537744 C0,80.8537744 -0.249284578,80.3552053 0.249284578,79.6073515 L5.48426071,72.8766679 C5.98282987,72.1288142 7.22925276,71.6302451 8.22639107,71.6302451 L121.900159,71.6302451 Z M134.862957,48.6960639 C135.860095,48.6960639 136.109379,49.4439176 135.61081,50.1917714 L131.372973,56.6731704 C130.874403,57.4210241 129.62798,58.1688779 128.880127,58.1688779 L38.6391096,57.9195933 C37.6419713,57.9195933 37.3926867,57.4210241 37.8912558,56.6731704 L43.126232,49.9424868 C43.6248011,49.1946331 44.871224,48.6960639 45.8683623,48.6960639 L134.862957,48.6960639 Z" fill-rule="nonzero">
		
		</path>
			</g>
		</symbol>

		<symbol id="icon-html" version="1.1" xmlns="http://www.w3.org/2000/svg" viewBox="0 0 32 32">
			<title>html5</title>
			<path
				d="M2 0h28l-2.547 28.751-11.484 3.249-11.419-3.251zM11.375 13l-0.309-3.624 13.412 0.004 0.307-3.496-17.568-0.004 0.931 10.68h12.168l-0.435 4.568-3.88 1.072-3.94-1.080-0.251-2.813h-3.479l0.44 5.561 7.229 1.933 7.172-1.924 0.992-10.876z"></path>
		</symbol>


		<symbol id="icon-css" version="1.1" xmlns="http://www.w3.org/2000/svg" viewBox="0 0 32 32">
			<title>css3</title>
			<path
				d="M2 0h28l-2.547 28.751-11.484 3.249-11.42-3.251zM24.787 5.884l-17.573-0.004 0.284 3.496 13.5 0.003-0.34 3.621h-8.853l0.32 3.431h8.243l-0.488 4.697-3.88 1.072-3.941-1.080-0.251-2.813h-3.48l0.387 5.14 7.287 2.271 7.164-2.040z"></path>
		</symbol>

		<symbol id="icon-linux" viewBox="0 0 32 32" version="1.1" xmlns="http://www.w3.org/2000/svg"
			xmlns:xlink="http://www.w3.org/1999/xlink">
			<path
				d="M15.534 8.411c0 0.102-0.102 0.102-0.102 0.102h-0.102c-0.102 0-0.102-0.102-0.204-0.204 0 0-0.102-0.102-0.102-0.204s0-0.102 0.102-0.102l0.204 0.102c0.102 0.102 0.204 0.204 0.204 0.306zM13.698 7.391c0-0.51-0.204-0.816-0.51-0.816 0 0 0 0.102-0.102 0.102v0.204h0.306c0 0.204 0.102 0.306 0.102 0.51h0.204zM17.268 6.881c0.204 0 0.306 0.204 0.408 0.51h0.204c-0.102-0.102-0.102-0.204-0.102-0.306s0-0.204-0.102-0.306-0.204-0.204-0.306-0.204c0 0-0.102 0.102-0.204 0.102 0 0.102 0.102 0.102 0.102 0.204zM14.208 8.513c-0.102 0-0.102 0-0.102-0.102s0-0.204 0.102-0.306c0.204 0 0.306-0.102 0.306-0.102 0.102 0 0.102 0.102 0.102 0.102 0 0.102-0.102 0.204-0.306 0.408h-0.102zM13.086 8.411c-0.408-0.204-0.51-0.51-0.51-1.020 0-0.306 0-0.51 0.204-0.714 0.102-0.204 0.306-0.306 0.51-0.306s0.306 0.102 0.51 0.306c0.102 0.306 0.204 0.612 0.204 0.918v0.204h0.102v-0.102c0.102 0 0.102-0.204 0.102-0.612 0-0.306 0-0.612-0.204-0.918s-0.408-0.51-0.816-0.51c-0.306 0-0.612 0.204-0.714 0.51-0.204 0.408-0.245 0.714-0.245 1.224 0 0.408 0.143 0.816 0.551 1.224 0.102-0.102 0.204-0.102 0.306-0.204zM25.834 22.791c0.102 0 0.102-0.041 0.102-0.133 0-0.224-0.102-0.489-0.408-0.785-0.306-0.306-0.816-0.5-1.428-0.581-0.102-0.010-0.204-0.010-0.204-0.010-0.102-0.020-0.102-0.020-0.204-0.020-0.102-0.010-0.306-0.031-0.408-0.051 0.306-0.949 0.408-1.785 0.408-2.519 0-1.020-0.204-1.734-0.612-2.346s-0.816-0.918-1.326-1.020c-0.102 0.102-0.102 0.102-0.102 0.204 0.51 0.204 1.020 0.612 1.326 1.224 0.306 0.714 0.408 1.326 0.408 2.040 0 0.571-0.102 1.418-0.51 2.499-0.408 0.163-0.816 0.54-1.122 1.132 0 0.092 0 0.143 0.102 0.143 0 0 0.102-0.092 0.204-0.265 0.204-0.173 0.306-0.347 0.51-0.52 0.306-0.173 0.51-0.265 0.816-0.265 0.51 0 1.020 0.071 1.326 0.214 0.408 0.133 0.612 0.275 0.714 0.439 0.102 0.153 0.204 0.296 0.306 0.428 0 0.132 0.102 0.194 0.102 0.194zM16.452 8.003c-0.102-0.102-0.102-0.306-0.102-0.51 0-0.408 0-0.612 0.204-0.918 0.204-0.204 0.408-0.306 0.612-0.306 0.306 0 0.51 0.204 0.714 0.408 0.102 0.306 0.204 0.51 0.204 0.816 0 0.51-0.204 0.816-0.612 0.918 0 0 0.102 0.102 0.204 0.102 0.204 0 0.306 0.102 0.51 0.204 0.102-0.612 0.204-1.020 0.204-1.53 0-0.612-0.102-1.020-0.306-1.326-0.306-0.306-0.612-0.408-1.020-0.408-0.306 0-0.612 0.102-0.918 0.306-0.204 0.306-0.306 0.51-0.306 0.816 0 0.51 0.102 0.918 0.306 1.326 0.102 0 0.204 0.102 0.306 0.102zM17.676 9.635c-1.326 0.918-2.346 1.326-3.162 1.326-0.714 0-1.428-0.306-2.040-0.816 0.102 0.204 0.204 0.408 0.306 0.51l0.612 0.612c0.408 0.408 0.918 0.612 1.428 0.612 0.714 0 1.53-0.408 2.55-1.122l0.918-0.612c0.204-0.204 0.408-0.408 0.408-0.714 0-0.102 0-0.204-0.102-0.204-0.102-0.204-0.612-0.51-1.632-0.816-0.918-0.408-1.632-0.612-2.040-0.612-0.306 0-0.816 0.204-1.53 0.612-0.612 0.408-1.020 0.816-1.020 1.224 0 0 0.102 0.102 0.204 0.306 0.612 0.51 1.224 0.816 1.836 0.816 0.816 0 1.836-0.408 3.162-1.428v0.204c0.102-0 0.102 0.102 0.102 0.102zM20.021 30.236c0.408 0.767 1.122 1.152 1.938 1.152 0.204 0 0.408-0.031 0.612-0.092 0.204-0.041 0.408-0.112 0.51-0.194 0.102-0.071 0.204-0.143 0.306-0.224 0.204-0.071 0.204-0.122 0.306-0.173l1.734-1.499c0.408-0.325 0.816-0.61 1.326-0.857 0.408-0.245 0.816-0.408 1.020-0.5 0.306-0.082 0.51-0.204 0.714-0.367 0.102-0.153 0.204-0.347 0.204-0.592 0-0.296-0.204-0.52-0.408-0.683s-0.408-0.275-0.612-0.347-0.408-0.235-0.714-0.51c-0.204-0.265-0.408-0.632-0.51-1.112l-0.102-0.591c-0.102-0.275-0.102-0.479-0.204-0.592 0-0.031 0-0.041-0.102-0.041s-0.306 0.092-0.408 0.265c-0.204 0.173-0.408 0.367-0.612 0.571-0.102 0.204-0.408 0.387-0.612 0.561-0.306 0.173-0.612 0.265-0.816 0.265-0.816 0-1.224-0.224-1.53-0.663-0.204-0.326-0.306-0.704-0.408-1.132-0.204-0.173-0.306-0.265-0.51-0.265-0.51 0-0.714 0.53-0.714 1.601v3.172c0 0.092-0.102 0.296-0.102 0.612-0.102 0.316-0.102 0.675-0.102 1.081l-0.204 1.132v0.017zM5.233 29.693c0.948 0.139 2.040 0.435 3.274 0.888 1.234 0.449 1.989 0.683 2.264 0.683 0.714 0 1.306-0.316 1.795-0.927 0.102-0.198 0.102-0.43 0.102-0.698 0-0.964-0.581-2.183-1.744-3.661l-0.694-0.928c-0.143-0.194-0.316-0.49-0.54-0.887-0.214-0.398-0.408-0.704-0.561-0.918-0.133-0.235-0.347-0.469-0.622-0.704-0.265-0.235-0.571-0.387-0.908-0.469-0.428 0.082-0.724 0.224-0.867 0.418s-0.224 0.408-0.245 0.632c-0.031 0.214-0.092 0.357-0.194 0.428-0.102 0.061-0.275 0.112-0.51 0.163-0.051 0-0.143 0-0.275 0.010h-0.275c-0.541 0-0.908 0.061-1.101 0.163-0.255 0.296-0.388 0.632-0.388 0.989 0 0.163 0.041 0.439 0.122 0.826 0.082 0.377 0.122 0.683 0.122 0.897 0 0.418-0.122 0.836-0.377 1.254-0.255 0.439-0.388 0.765-0.388 0.997 0.102 0.396 0.775 0.674 2.009 0.837zM8.629 20.42c0-0.704 0.184-1.479 0.561-2.397 0.367-0.918 0.734-1.53 1.091-1.938-0.020-0.102-0.071-0.102-0.153-0.102l-0.102-0.102c-0.296 0.306-0.653 1.020-1.081 2.040-0.428 0.918-0.653 1.764-0.653 2.387 0 0.459 0.112 0.857 0.316 1.203 0.224 0.337 0.765 0.826 1.622 1.448l1.081 0.704c1.152 1 1.764 1.693 1.764 2.101 0 0.214-0.102 0.428-0.408 0.663-0.204 0.245-0.479 0.367-0.714 0.367-0.020 0-0.031 0.020-0.031 0.071 0 0.010 0.102 0.214 0.316 0.612 0.428 0.581 1.346 0.867 2.57 0.867 2.244 0 3.977-0.918 5.303-2.754 0-0.51 0-0.826-0.102-0.959v-0.377c0-0.663 0.102-1.163 0.306-1.489s0.408-0.479 0.714-0.479c0.204 0 0.408 0.071 0.612 0.224 0.102-0.785 0.102-1.469 0.102-2.081 0-0.928 0-1.693-0.204-2.407-0.102-0.612-0.306-1.122-0.51-1.53-0.204-0.306-0.408-0.612-0.612-0.918s-0.306-0.612-0.51-0.918c-0.102-0.408-0.204-0.714-0.204-1.224-0.306-0.51-0.51-1.020-0.816-1.53-0.204-0.51-0.408-1.020-0.612-1.428l-0.918 0.714c-1.020 0.714-1.836 1.020-2.55 1.020-0.612 0-1.122-0.102-1.428-0.51l-0.612-0.51c0 0.306-0.102 0.714-0.306 1.122l-0.643 1.224c-0.286 0.714-0.438 1.122-0.469 1.428-0.041 0.204-0.071 0.408-0.092 0.408l-0.765 1.53c-0.826 1.53-1.244 2.947-1.244 4.12 0 0.235 0.020 0.479 0.061 0.724-0.459-0.316-0.683-0.755-0.683-1.326zM15.932 30.068c-1.326 0-2.346 0.18-3.060 0.535v-0.031c-0.51 0.612-1.081 0.928-1.877 0.928-0.5 0-1.285-0.194-2.346-0.581-1.071-0.367-2.019-0.649-2.845-0.834-0.082-0.023-0.265-0.058-0.561-0.105-0.286-0.046-0.551-0.093-0.785-0.14-0.214-0.046-0.459-0.115-0.724-0.209-0.255-0.081-0.459-0.186-0.612-0.313-0.141-0.129-0.21-0.273-0.21-0.436s0.035-0.337 0.104-0.523c0.065-0.112 0.137-0.224 0.208-0.326 0.071-0.112 0.133-0.214 0.173-0.316 0.061-0.092 0.102-0.184 0.143-0.286 0.041-0.092 0.082-0.184 0.102-0.296 0.020-0.102 0.041-0.204 0.041-0.306s-0.041-0.408-0.122-0.948c-0.082-0.53-0.122-0.867-0.122-1.010 0-0.449 0.102-0.806 0.326-1.061s0.439-0.388 0.663-0.388h1.173c0.092 0 0.235-0.051 0.449-0.173 0.071-0.163 0.133-0.296 0.173-0.418 0.051-0.122 0.071-0.214 0.092-0.255 0.020-0.061 0.041-0.122 0.061-0.173 0.041-0.071 0.092-0.153 0.163-0.235-0.082-0.102-0.122-0.235-0.122-0.398 0-0.112 0-0.214 0.020-0.275 0-0.367 0.173-0.887 0.54-1.571l0.357-0.643c0.296-0.551 0.52-0.959 0.683-1.367 0.173-0.408 0.357-1.020 0.561-1.836 0.163-0.714 0.551-1.428 1.163-2.142l0.765-0.918c0.53-0.612 0.877-1.122 1.071-1.53s0.296-0.918 0.296-1.326c0-0.204-0.051-0.816-0.163-1.836-0.102-1.020-0.153-2.040-0.153-2.958 0-0.714 0.061-1.224 0.194-1.734s0.367-1.020 0.714-1.428c0.306-0.408 0.714-0.816 1.326-1.020s1.326-0.306 2.142-0.306c0.306 0 0.612 0 0.918 0.102 0.306 0 0.714 0.102 1.224 0.306 0.408 0.204 0.816 0.408 1.122 0.714 0.408 0.306 0.714 0.816 1.020 1.326 0.204 0.612 0.408 1.224 0.51 2.040 0.102 0.51 0.102 1.020 0.204 1.734 0 0.612 0.102 1.020 0.102 1.326 0.102 0.306 0.102 0.714 0.204 1.224 0.102 0.408 0.204 0.816 0.408 1.122 0.204 0.408 0.408 0.816 0.714 1.224 0.306 0.51 0.714 1.020 1.122 1.632 0.918 1.020 1.632 2.142 2.040 3.263 0.51 1.020 0.816 2.346 0.816 3.763 0 0.704-0.102 1.387-0.306 2.050 0.204 0 0.306 0.082 0.408 0.224s0.204 0.449 0.306 0.928l0.102 0.755c0.102 0.224 0.204 0.439 0.51 0.622 0.204 0.184 0.408 0.337 0.714 0.459 0.204 0.102 0.51 0.245 0.714 0.428 0.204 0.204 0.306 0.418 0.306 0.642 0 0.347-0.102 0.602-0.306 0.785-0.204 0.204-0.408 0.347-0.714 0.439-0.204 0.102-0.612 0.306-1.224 0.594-0.51 0.302-1.020 0.668-1.53 1.101l-1.020 0.868c-0.408 0.398-0.816 0.683-1.122 0.857-0.306 0.184-0.714 0.275-1.122 0.275l-0.714-0.082c-0.816-0.214-1.326-0.622-1.632-1.244-1.632-0.198-2.958-0.296-3.774-0.296z"></path>
		</symbol>


		<symbol id="icon-arrow-14" xmlns="http://www.w3.org/2000/svg" viewBox="0 0 24 24">
			<path d="M12 4v-4l12 12-12 12v-4h-12v-16z" />
		</symbol>

		<symbol version="1.1" id="icon-photoshop" xmlns="http://www.w3.org/2000/svg"
			xmlns:xlink="http://www.w3.org/1999/xlink" x="0px" y="0px"
			viewBox="0 0 455 455" style="enable-background:new 0 0 455 455;" xml:space="preserve">
    <g>
        <path style="fill-rule:evenodd;clip-rule:evenodd;" d="M149.329,144.802c-11.069,0-18.7,1.105-22.547,2.209v71.674
            c4.698,1.01,10.374,1.357,18.257,1.357c29.168,0,47.3-14.758,47.3-39.669C192.214,158.079,176.794,144.802,149.329,144.802z"/>
        <path style="fill-rule:evenodd;clip-rule:evenodd;" d="M0,0v455h455V0H0z M224.219,236.693
            c-18.604,17.595-46.417,25.479-78.834,25.479c-7.125,0-13.654-0.252-18.698-0.978v86.844H72.354V108.445
            c16.872-2.837,40.647-5.046,74.136-5.046c33.899,0,58.021,6.401,74.167,19.456c15.64,12.204,25.983,32.417,25.983,56.194
            C246.64,202.794,238.758,223.007,224.219,236.693z M306.27,351.601c-23.05,0-43.609-5.047-56.916-12.299l9.743-39.196
            c10.091,6.055,30.904,13.307,47.173,13.307c16.492,0,23.398-5.77,23.398-14.789c0-8.988-5.424-13.276-25.856-20.182
            c-36.484-12.202-50.518-32.038-50.139-52.976c0-32.763,28.096-57.644,71.676-57.644c20.592,0,38.944,4.667,49.76,10.091
            l-9.714,37.839c-8.009-4.319-23.05-10.122-38.185-10.122c-13.307,0-20.813,5.424-20.813,14.412c0,8.261,6.781,12.581,28.318,20.213
            c33.52,11.446,47.552,28.443,47.932,54.333C382.646,327.477,356.63,351.601,306.27,351.601z"/>
    </g>

</symbol>



<symbol id="icon-arrow-15" version="1.1"  xmlns="http://www.w3.org/2000/svg" xmlns:xlink="http://www.w3.org/1999/xlink" 
	 viewBox="0 0 512 512"  xml:space="preserve">
<style type="text/css">
	.st0{fill:#000000;}
</style>
<g>
	<path class="st0" d="M473.236,283.232L276.228,10.34C271.535,3.855,264.009,0,255.996,0c-8.013,0-15.539,3.855-20.222,10.34
		l-197,272.901c-4.975,7.692-4.78,17.622,0.497,25.1c5.277,7.478,14.546,11.022,23.464,8.938l96.465-22.53v184.81
		c-0.01,17.896,14.517,32.422,32.43,32.422l128.74,0.02c17.924-0.02,32.44-14.546,32.44-32.45V294.73l96.455,22.548
		c8.909,2.084,18.197-1.451,23.465-8.938C477.998,300.853,478.202,290.922,473.236,283.232z"/>
</g>
</symbol>




	</defs>
</svg>